<svg width="25" height="24" viewBox="0 0 25 24" fill="none" xmlns="http://www.w3.org/2000/svg">
<path fill-rule="evenodd" clip-rule="evenodd" d="M6.00579 0.0508264C5.44095 0.268472 4.57357 1.02162 3.5507 2.18258C2.52738 3.34404 1.50871 4.75784 1.1386 5.53031L0.957031 5.90919L1.01478 6.41106C1.4726 10.3919 4.77478 15.5915 9.20414 19.3061C12.3276 21.9255 15.6999 23.6194 18.4775 23.9639C18.9351 24.0206 18.9622 24.0184 19.2509 23.8998C20.4296 23.4157 23.2111 21.1718 24.2637 19.8559C24.7269 19.2768 24.8865 18.9538 24.8836 18.6011C24.8808 18.2571 24.6997 17.8439 24.4166 17.5356C23.9969 17.0785 21.3904 15.403 19.9989 14.6958C19.0713 14.2243 18.5798 14.046 18.2081 14.046C17.6312 14.046 17.3092 14.276 16.4063 15.333C16.0584 15.7401 15.745 16.0801 15.7098 16.0885C15.6034 16.1137 14.7494 15.7618 14.1473 15.4446C12.1293 14.3816 10.5588 12.8066 9.50828 10.7923C9.19033 10.1827 8.83812 9.32265 8.86345 9.21788C8.87178 9.18344 9.20689 8.87189 9.60807 8.5255C10.6692 7.60936 10.895 7.2933 10.8971 6.72111C10.9 5.96866 10.0633 4.31995 8.42647 1.85231C7.99323 1.19917 7.55974 0.603751 7.43008 0.483815C7.00293 0.0885189 6.39081 -0.0975411 6.00579 0.0508264ZM13.414 0.85143C12.9467 1.05571 12.7997 1.69448 13.1294 2.08783C13.307 2.29967 13.524 2.38271 13.9011 2.38321C15.3895 2.38516 17.1749 2.93799 18.5138 3.81137C19.7421 4.61273 20.8235 5.80392 21.4916 7.09158C22.1315 8.32502 22.4089 9.35784 22.5093 10.8815C22.5528 11.5405 22.5933 11.6465 22.8854 11.8654C23.0785 12.0101 23.5516 12.0101 23.7446 11.8654C24.1102 11.5915 24.1614 11.3384 24.0644 10.2862C23.7271 6.6288 21.572 3.47524 18.3034 1.85626C17.2211 1.32016 16.1327 1.00035 14.8971 0.855235C14.1245 0.764532 13.6158 0.763231 13.414 0.85143ZM6.75015 2.1951C7.54812 3.32507 8.43744 4.82622 9.01131 6.01191C9.17118 6.34228 9.30213 6.62725 9.30223 6.64517C9.30238 6.66309 9.02762 6.91087 8.69161 7.19574C7.84373 7.91471 7.32866 8.41963 7.22982 8.62871C7.11233 8.87714 7.15542 9.19345 7.41213 9.96842C7.95109 11.5953 9.15797 13.4751 10.4804 14.7473C11.9086 16.1212 13.6893 17.1898 15.3544 17.6722C15.8296 17.8099 16.0521 17.8291 16.2584 17.7503C16.4603 17.6733 16.8842 17.2465 17.5886 16.4111C17.9426 15.9913 18.2483 15.6479 18.2678 15.648C18.2874 15.6481 18.5727 15.7796 18.9018 15.9401C20.0871 16.5181 21.5753 17.4057 22.6894 18.199L23.2674 18.6106L22.8636 19.0545C21.9825 20.0233 20.2142 21.508 19.1175 22.1997L18.7846 22.4097L18.4443 22.3526C14.0426 21.6151 8.5828 17.5496 5.23854 12.5193C3.82128 10.3874 2.9325 8.33243 2.62323 6.47218L2.56658 6.13154L2.74007 5.84487C3.347 4.84194 4.8981 2.97243 5.88536 2.05389C6.1329 1.82363 6.33925 1.63446 6.34394 1.63356C6.34862 1.63271 6.53144 1.8854 6.75015 2.1951ZM13.414 4.8522C12.9333 5.0742 12.7981 5.71102 13.1472 6.11002C13.3303 6.31945 13.4875 6.37021 14.0648 6.40655C15.2533 6.48134 16.2858 6.96669 17.1565 7.85974C18.0055 8.73063 18.4208 9.6771 18.5213 10.9707C18.5651 11.5335 18.6163 11.6557 18.8961 11.8654C19.0892 12.0101 19.5622 12.0101 19.7553 11.8654C20.1275 11.5865 20.1905 11.2503 20.0512 10.2882C19.8483 8.8878 19.2504 7.70046 18.2351 6.68121C17.0818 5.52366 15.6839 4.88864 14.1146 4.8096C13.7016 4.78883 13.5285 4.79934 13.414 4.8522Z" fill="#006C67"/>
</svg>
