<svg width="5" height="5" viewBox="0 0 6 6" fill="none" xmlns="http://www.w3.org/2000/svg">
<path d="M4.25 4.6075H3.25L2.1375 5.34749C1.9725 5.45749 1.75 5.34 1.75 5.14V4.6075C1 4.6075 0.5 4.1075 0.5 3.3575V1.85748C0.5 1.10748 1 0.607483 1.75 0.607483H4.25C5 0.607483 5.5 1.10748 5.5 1.85748V3.3575C5.5 4.1075 5 4.6075 4.25 4.6075Z" stroke="#006C67" stroke-width="0.4" stroke-miterlimit="10" stroke-linecap="round" stroke-linejoin="round"/>
<path d="M2.99995 2.84003V2.78754C2.99995 2.61754 3.10496 2.52753 3.20996 2.45503C3.31246 2.38503 3.41495 2.29504 3.41495 2.13004C3.41495 1.90004 3.22995 1.71503 2.99995 1.71503C2.76995 1.71503 2.58496 1.90004 2.58496 2.13004" stroke="#006C67" stroke-width="0.4" stroke-linecap="round" stroke-linejoin="round"/>
<path d="M2.99887 3.4375H3.00112" stroke="#006C67" stroke-width="0.4" stroke-linecap="round" stroke-linejoin="round"/>
</svg>
