<svg width="22" height="23" viewBox="0 0 22 23" fill="none" xmlns="http://www.w3.org/2000/svg">
<path d="M11 21.5C16.5228 21.5 21 17.0228 21 11.5C21 5.97715 16.5228 1.5 11 1.5C5.47715 1.5 1 5.97715 1 11.5C1 17.0228 5.47715 21.5 11 21.5Z" stroke="#1D272F" stroke-width="1.5" stroke-linecap="round" stroke-linejoin="round"/>
<path d="M14.179 9.22443L13.8409 10.3778H7.39773L7.7358 9.22443H14.179ZM11.1562 17L7.51705 12.5455L7.49716 11.7102H9.30682C9.77746 11.7102 10.1785 11.6439 10.5099 11.5114C10.8414 11.3755 11.0949 11.1733 11.2706 10.9048C11.4463 10.633 11.5341 10.2917 11.5341 9.88068C11.5341 9.27415 11.3518 8.79853 10.9872 8.45383C10.6226 8.10582 10.0625 7.93182 9.30682 7.93182H7.39773L7.7358 6.81818H9.30682C10.1155 6.81818 10.7784 6.95241 11.2955 7.22088C11.8158 7.48603 12.2003 7.85062 12.4489 8.31463C12.7008 8.77533 12.8267 9.29735 12.8267 9.88068C12.8267 10.4077 12.7107 10.8932 12.4787 11.3374C12.25 11.7782 11.8821 12.1328 11.375 12.4013C10.8712 12.6697 10.205 12.804 9.37642 12.804H9.34659L12.7074 16.9205V17H11.1562ZM14.179 6.81818L13.8409 7.97159L8.76989 7.93182L9.10795 6.81818H14.179Z" fill="#1D272F"/>
</svg>
