<svg width="171" height="160" viewBox="0 0 171 160" fill="none" xmlns="http://www.w3.org/2000/svg">
<circle cx="88" cy="80" r="79.9" fill="#F8F9FB" stroke="black" stroke-width="0.2"/>
<rect x="108" y="5" width="63" height="17" rx="5" fill="#C4C4C4"/>
<path d="M124.554 13.1449H123.491C123.461 12.9706 123.405 12.8163 123.324 12.6818C123.242 12.5455 123.141 12.4299 123.02 12.3352C122.899 12.2405 122.76 12.1695 122.605 12.1222C122.452 12.0729 122.286 12.0483 122.108 12.0483C121.792 12.0483 121.511 12.1278 121.267 12.2869C121.023 12.4441 120.831 12.6752 120.693 12.9801C120.555 13.2831 120.486 13.6534 120.486 14.0909C120.486 14.536 120.555 14.911 120.693 15.2159C120.833 15.5189 121.025 15.7481 121.267 15.9034C121.511 16.0568 121.791 16.1335 122.105 16.1335C122.279 16.1335 122.442 16.1108 122.594 16.0653C122.747 16.018 122.884 15.9489 123.006 15.858C123.129 15.767 123.232 15.6553 123.315 15.5227C123.401 15.3902 123.459 15.2386 123.491 15.0682L124.554 15.0739C124.514 15.3504 124.428 15.6098 124.295 15.8523C124.165 16.0947 123.993 16.3087 123.781 16.4943C123.569 16.678 123.321 16.822 123.037 16.9261C122.753 17.0284 122.438 17.0795 122.091 17.0795C121.58 17.0795 121.123 16.9612 120.722 16.7244C120.32 16.4877 120.004 16.1458 119.773 15.6989C119.542 15.2519 119.426 14.7159 119.426 14.0909C119.426 13.464 119.543 12.928 119.776 12.483C120.009 12.036 120.326 11.6941 120.727 11.4574C121.129 11.2206 121.583 11.1023 122.091 11.1023C122.415 11.1023 122.716 11.1477 122.994 11.2386C123.273 11.3295 123.521 11.4631 123.739 11.6392C123.956 11.8134 124.135 12.0275 124.276 12.2812C124.418 12.5331 124.51 12.821 124.554 13.1449ZM126.502 11.1818V17H125.474V11.1818H126.502ZM128.815 17.0881C128.539 17.0881 128.29 17.0388 128.068 16.9403C127.848 16.84 127.674 16.6922 127.545 16.4972C127.419 16.3021 127.355 16.0616 127.355 15.7756C127.355 15.5294 127.401 15.3258 127.491 15.1648C127.582 15.0038 127.706 14.875 127.864 14.7784C128.021 14.6818 128.198 14.6089 128.395 14.5597C128.594 14.5085 128.799 14.4716 129.011 14.4489C129.267 14.4223 129.474 14.3987 129.634 14.3778C129.793 14.3551 129.908 14.321 129.98 14.2756C130.054 14.2282 130.091 14.1553 130.091 14.0568V14.0398C130.091 13.8258 130.027 13.66 129.901 13.5426C129.774 13.4252 129.591 13.3665 129.352 13.3665C129.1 13.3665 128.901 13.4214 128.753 13.5312C128.607 13.6411 128.509 13.7708 128.457 13.9205L127.497 13.7841C127.573 13.5189 127.698 13.2973 127.872 13.1193C128.046 12.9394 128.259 12.8049 128.511 12.7159C128.763 12.625 129.042 12.5795 129.347 12.5795C129.557 12.5795 129.766 12.6042 129.974 12.6534C130.183 12.7027 130.373 12.7841 130.545 12.8977C130.718 13.0095 130.856 13.1619 130.96 13.3551C131.066 13.5483 131.119 13.7898 131.119 14.0795V17H130.131V16.4006H130.097C130.034 16.5218 129.946 16.6354 129.832 16.7415C129.721 16.8456 129.58 16.9299 129.409 16.9943C129.241 17.0568 129.043 17.0881 128.815 17.0881ZM129.082 16.3324C129.289 16.3324 129.468 16.2917 129.619 16.2102C129.771 16.1269 129.887 16.017 129.969 15.8807C130.052 15.7443 130.094 15.5956 130.094 15.4347V14.9205C130.062 14.947 130.007 14.9716 129.929 14.9943C129.853 15.017 129.768 15.0369 129.673 15.054C129.579 15.071 129.485 15.0862 129.392 15.0994C129.299 15.1127 129.219 15.1241 129.151 15.1335C128.997 15.1544 128.86 15.1884 128.739 15.2358C128.617 15.2831 128.522 15.3494 128.452 15.4347C128.382 15.518 128.347 15.6259 128.347 15.7585C128.347 15.9479 128.416 16.0909 128.554 16.1875C128.692 16.2841 128.868 16.3324 129.082 16.3324ZM135.602 13.7898L134.665 13.892C134.638 13.7973 134.592 13.7083 134.526 13.625C134.461 13.5417 134.374 13.4744 134.264 13.4233C134.154 13.3722 134.02 13.3466 133.861 13.3466C133.647 13.3466 133.467 13.393 133.321 13.4858C133.177 13.5786 133.106 13.6989 133.108 13.8466C133.106 13.9735 133.152 14.0767 133.247 14.1562C133.344 14.2358 133.503 14.3011 133.724 14.3523L134.469 14.5114C134.882 14.6004 135.188 14.7415 135.389 14.9347C135.592 15.1278 135.694 15.3807 135.696 15.6932C135.694 15.9678 135.614 16.2102 135.455 16.4205C135.297 16.6288 135.079 16.7917 134.798 16.9091C134.518 17.0265 134.196 17.0852 133.832 17.0852C133.298 17.0852 132.868 16.9735 132.543 16.75C132.217 16.5246 132.023 16.2112 131.96 15.8097L132.963 15.7131C133.009 15.91 133.105 16.0587 133.253 16.1591C133.401 16.2595 133.593 16.3097 133.83 16.3097C134.074 16.3097 134.27 16.2595 134.418 16.1591C134.567 16.0587 134.642 15.9347 134.642 15.7869C134.642 15.6619 134.594 15.5587 134.497 15.4773C134.402 15.3958 134.255 15.3333 134.054 15.2898L133.31 15.1335C132.891 15.0464 132.581 14.8996 132.381 14.6932C132.18 14.4848 132.08 14.2216 132.082 13.9034C132.08 13.6345 132.153 13.4015 132.301 13.2045C132.451 13.0057 132.658 12.8523 132.923 12.7443C133.19 12.6345 133.498 12.5795 133.847 12.5795C134.358 12.5795 134.76 12.6884 135.054 12.9062C135.349 13.1241 135.532 13.4186 135.602 13.7898ZM139.993 13.7898L139.055 13.892C139.029 13.7973 138.982 13.7083 138.916 13.625C138.852 13.5417 138.765 13.4744 138.655 13.4233C138.545 13.3722 138.411 13.3466 138.251 13.3466C138.037 13.3466 137.857 13.393 137.712 13.4858C137.568 13.5786 137.497 13.6989 137.499 13.8466C137.497 13.9735 137.543 14.0767 137.638 14.1562C137.734 14.2358 137.893 14.3011 138.115 14.3523L138.859 14.5114C139.272 14.6004 139.579 14.7415 139.78 14.9347C139.982 15.1278 140.085 15.3807 140.087 15.6932C140.085 15.9678 140.004 16.2102 139.845 16.4205C139.688 16.6288 139.469 16.7917 139.189 16.9091C138.909 17.0265 138.587 17.0852 138.223 17.0852C137.689 17.0852 137.259 16.9735 136.933 16.75C136.607 16.5246 136.413 16.2112 136.351 15.8097L137.354 15.7131C137.399 15.91 137.496 16.0587 137.643 16.1591C137.791 16.2595 137.983 16.3097 138.22 16.3097C138.464 16.3097 138.661 16.2595 138.808 16.1591C138.958 16.0587 139.033 15.9347 139.033 15.7869C139.033 15.6619 138.984 15.5587 138.888 15.4773C138.793 15.3958 138.645 15.3333 138.445 15.2898L137.7 15.1335C137.282 15.0464 136.972 14.8996 136.771 14.6932C136.571 14.4848 136.471 14.2216 136.473 13.9034C136.471 13.6345 136.544 13.4015 136.692 13.2045C136.841 13.0057 137.049 12.8523 137.314 12.7443C137.581 12.6345 137.889 12.5795 138.237 12.5795C138.749 12.5795 139.151 12.6884 139.445 12.9062C139.74 13.1241 139.923 13.4186 139.993 13.7898ZM145.274 11.1818V17H144.22V12.2074H144.186L142.825 13.0767V12.1108L144.271 11.1818H145.274ZM146.751 17V16.2386L148.771 14.2585C148.964 14.0634 149.125 13.8902 149.254 13.7386C149.383 13.5871 149.48 13.4403 149.544 13.2983C149.608 13.1562 149.641 13.0047 149.641 12.8438C149.641 12.66 149.599 12.5028 149.516 12.3722C149.432 12.2396 149.318 12.1373 149.172 12.0653C149.026 11.9934 148.86 11.9574 148.675 11.9574C148.483 11.9574 148.316 11.9972 148.172 12.0767C148.028 12.1544 147.916 12.2652 147.837 12.4091C147.759 12.553 147.72 12.7244 147.72 12.9233H146.717C146.717 12.554 146.802 12.233 146.97 11.9602C147.139 11.6875 147.371 11.4763 147.666 11.3267C147.964 11.1771 148.304 11.1023 148.689 11.1023C149.079 11.1023 149.422 11.1752 149.717 11.321C150.013 11.4669 150.242 11.6667 150.405 11.9205C150.57 12.1742 150.652 12.464 150.652 12.7898C150.652 13.0076 150.61 13.2216 150.527 13.4318C150.444 13.642 150.297 13.875 150.087 14.1307C149.878 14.3864 149.586 14.696 149.209 15.0597L148.206 16.0795V16.1193H150.74V17H146.751ZM153.911 12.6364V13.4318H151.402V12.6364H153.911ZM152.021 11.5909H153.05V15.6875C153.05 15.8258 153.071 15.9318 153.112 16.0057C153.156 16.0777 153.213 16.1269 153.283 16.1534C153.353 16.1799 153.43 16.1932 153.516 16.1932C153.58 16.1932 153.639 16.1884 153.692 16.179C153.747 16.1695 153.788 16.161 153.817 16.1534L153.99 16.9574C153.935 16.9763 153.857 16.9972 153.754 17.0199C153.654 17.0426 153.531 17.0559 153.385 17.0597C153.127 17.0672 152.895 17.0284 152.689 16.9432C152.482 16.8561 152.319 16.7216 152.197 16.5398C152.078 16.358 152.019 16.1307 152.021 15.858V11.5909ZM155.893 14.4432V17H154.864V11.1818H155.87V13.3778H155.921C156.023 13.1316 156.182 12.9375 156.396 12.7955C156.612 12.6515 156.886 12.5795 157.219 12.5795C157.522 12.5795 157.787 12.643 158.012 12.7699C158.237 12.8968 158.412 13.0824 158.535 13.3267C158.66 13.571 158.722 13.8693 158.722 14.2216V17H157.694V14.3807C157.694 14.0871 157.618 13.8589 157.467 13.696C157.317 13.5312 157.107 13.4489 156.836 13.4489C156.654 13.4489 156.491 13.4886 156.347 13.5682C156.205 13.6458 156.094 13.7585 156.012 13.9062C155.933 14.054 155.893 14.233 155.893 14.4432Z" fill="#272727"/>
<rect x="108" y="5" width="63" height="17" rx="5" fill="#FCEEEE"/>
<rect y="126" width="63" height="17" rx="5" fill="#FCEEEE"/>
<path d="M124.554 13.1449H123.491C123.461 12.9706 123.405 12.8163 123.324 12.6818C123.242 12.5455 123.141 12.4299 123.02 12.3352C122.899 12.2405 122.76 12.1695 122.605 12.1222C122.452 12.0729 122.286 12.0483 122.108 12.0483C121.792 12.0483 121.511 12.1278 121.267 12.2869C121.023 12.4441 120.831 12.6752 120.693 12.9801C120.555 13.2831 120.486 13.6534 120.486 14.0909C120.486 14.536 120.555 14.911 120.693 15.2159C120.833 15.5189 121.025 15.7481 121.267 15.9034C121.511 16.0568 121.791 16.1335 122.105 16.1335C122.279 16.1335 122.442 16.1108 122.594 16.0653C122.747 16.018 122.884 15.9489 123.006 15.858C123.129 15.767 123.232 15.6553 123.315 15.5227C123.401 15.3902 123.459 15.2386 123.491 15.0682L124.554 15.0739C124.514 15.3504 124.428 15.6098 124.295 15.8523C124.165 16.0947 123.993 16.3087 123.781 16.4943C123.569 16.678 123.321 16.822 123.037 16.9261C122.753 17.0284 122.438 17.0795 122.091 17.0795C121.58 17.0795 121.123 16.9612 120.722 16.7244C120.32 16.4877 120.004 16.1458 119.773 15.6989C119.542 15.2519 119.426 14.7159 119.426 14.0909C119.426 13.464 119.543 12.928 119.776 12.483C120.009 12.036 120.326 11.6941 120.727 11.4574C121.129 11.2206 121.583 11.1023 122.091 11.1023C122.415 11.1023 122.716 11.1477 122.994 11.2386C123.273 11.3295 123.521 11.4631 123.739 11.6392C123.956 11.8134 124.135 12.0275 124.276 12.2812C124.418 12.5331 124.51 12.821 124.554 13.1449ZM126.502 11.1818V17H125.474V11.1818H126.502ZM128.815 17.0881C128.539 17.0881 128.29 17.0388 128.068 16.9403C127.848 16.84 127.674 16.6922 127.545 16.4972C127.419 16.3021 127.355 16.0616 127.355 15.7756C127.355 15.5294 127.401 15.3258 127.491 15.1648C127.582 15.0038 127.706 14.875 127.864 14.7784C128.021 14.6818 128.198 14.6089 128.395 14.5597C128.594 14.5085 128.799 14.4716 129.011 14.4489C129.267 14.4223 129.474 14.3987 129.634 14.3778C129.793 14.3551 129.908 14.321 129.98 14.2756C130.054 14.2282 130.091 14.1553 130.091 14.0568V14.0398C130.091 13.8258 130.027 13.66 129.901 13.5426C129.774 13.4252 129.591 13.3665 129.352 13.3665C129.1 13.3665 128.901 13.4214 128.753 13.5312C128.607 13.6411 128.509 13.7708 128.457 13.9205L127.497 13.7841C127.573 13.5189 127.698 13.2973 127.872 13.1193C128.046 12.9394 128.259 12.8049 128.511 12.7159C128.763 12.625 129.042 12.5795 129.347 12.5795C129.557 12.5795 129.766 12.6042 129.974 12.6534C130.183 12.7027 130.373 12.7841 130.545 12.8977C130.718 13.0095 130.856 13.1619 130.96 13.3551C131.066 13.5483 131.119 13.7898 131.119 14.0795V17H130.131V16.4006H130.097C130.034 16.5218 129.946 16.6354 129.832 16.7415C129.721 16.8456 129.58 16.9299 129.409 16.9943C129.241 17.0568 129.043 17.0881 128.815 17.0881ZM129.082 16.3324C129.289 16.3324 129.468 16.2917 129.619 16.2102C129.771 16.1269 129.887 16.017 129.969 15.8807C130.052 15.7443 130.094 15.5956 130.094 15.4347V14.9205C130.062 14.947 130.007 14.9716 129.929 14.9943C129.853 15.017 129.768 15.0369 129.673 15.054C129.579 15.071 129.485 15.0862 129.392 15.0994C129.299 15.1127 129.219 15.1241 129.151 15.1335C128.997 15.1544 128.86 15.1884 128.739 15.2358C128.617 15.2831 128.522 15.3494 128.452 15.4347C128.382 15.518 128.347 15.6259 128.347 15.7585C128.347 15.9479 128.416 16.0909 128.554 16.1875C128.692 16.2841 128.868 16.3324 129.082 16.3324ZM135.602 13.7898L134.665 13.892C134.638 13.7973 134.592 13.7083 134.526 13.625C134.461 13.5417 134.374 13.4744 134.264 13.4233C134.154 13.3722 134.02 13.3466 133.861 13.3466C133.647 13.3466 133.467 13.393 133.321 13.4858C133.177 13.5786 133.106 13.6989 133.108 13.8466C133.106 13.9735 133.152 14.0767 133.247 14.1562C133.344 14.2358 133.503 14.3011 133.724 14.3523L134.469 14.5114C134.882 14.6004 135.188 14.7415 135.389 14.9347C135.592 15.1278 135.694 15.3807 135.696 15.6932C135.694 15.9678 135.614 16.2102 135.455 16.4205C135.297 16.6288 135.079 16.7917 134.798 16.9091C134.518 17.0265 134.196 17.0852 133.832 17.0852C133.298 17.0852 132.868 16.9735 132.543 16.75C132.217 16.5246 132.023 16.2112 131.96 15.8097L132.963 15.7131C133.009 15.91 133.105 16.0587 133.253 16.1591C133.401 16.2595 133.593 16.3097 133.83 16.3097C134.074 16.3097 134.27 16.2595 134.418 16.1591C134.567 16.0587 134.642 15.9347 134.642 15.7869C134.642 15.6619 134.594 15.5587 134.497 15.4773C134.402 15.3958 134.255 15.3333 134.054 15.2898L133.31 15.1335C132.891 15.0464 132.581 14.8996 132.381 14.6932C132.18 14.4848 132.08 14.2216 132.082 13.9034C132.08 13.6345 132.153 13.4015 132.301 13.2045C132.451 13.0057 132.658 12.8523 132.923 12.7443C133.19 12.6345 133.498 12.5795 133.847 12.5795C134.358 12.5795 134.76 12.6884 135.054 12.9062C135.349 13.1241 135.532 13.4186 135.602 13.7898ZM139.993 13.7898L139.055 13.892C139.029 13.7973 138.982 13.7083 138.916 13.625C138.852 13.5417 138.765 13.4744 138.655 13.4233C138.545 13.3722 138.411 13.3466 138.251 13.3466C138.037 13.3466 137.857 13.393 137.712 13.4858C137.568 13.5786 137.497 13.6989 137.499 13.8466C137.497 13.9735 137.543 14.0767 137.638 14.1562C137.734 14.2358 137.893 14.3011 138.115 14.3523L138.859 14.5114C139.272 14.6004 139.579 14.7415 139.78 14.9347C139.982 15.1278 140.085 15.3807 140.087 15.6932C140.085 15.9678 140.004 16.2102 139.845 16.4205C139.688 16.6288 139.469 16.7917 139.189 16.9091C138.909 17.0265 138.587 17.0852 138.223 17.0852C137.689 17.0852 137.259 16.9735 136.933 16.75C136.607 16.5246 136.413 16.2112 136.351 15.8097L137.354 15.7131C137.399 15.91 137.496 16.0587 137.643 16.1591C137.791 16.2595 137.983 16.3097 138.22 16.3097C138.464 16.3097 138.661 16.2595 138.808 16.1591C138.958 16.0587 139.033 15.9347 139.033 15.7869C139.033 15.6619 138.984 15.5587 138.888 15.4773C138.793 15.3958 138.645 15.3333 138.445 15.2898L137.7 15.1335C137.282 15.0464 136.972 14.8996 136.771 14.6932C136.571 14.4848 136.471 14.2216 136.473 13.9034C136.471 13.6345 136.544 13.4015 136.692 13.2045C136.841 13.0057 137.049 12.8523 137.314 12.7443C137.581 12.6345 137.889 12.5795 138.237 12.5795C138.749 12.5795 139.151 12.6884 139.445 12.9062C139.74 13.1241 139.923 13.4186 139.993 13.7898ZM145.274 11.1818V17H144.22V12.2074H144.186L142.825 13.0767V12.1108L144.271 11.1818H145.274ZM146.751 17V16.2386L148.771 14.2585C148.964 14.0634 149.125 13.8902 149.254 13.7386C149.383 13.5871 149.48 13.4403 149.544 13.2983C149.608 13.1562 149.641 13.0047 149.641 12.8438C149.641 12.66 149.599 12.5028 149.516 12.3722C149.432 12.2396 149.318 12.1373 149.172 12.0653C149.026 11.9934 148.86 11.9574 148.675 11.9574C148.483 11.9574 148.316 11.9972 148.172 12.0767C148.028 12.1544 147.916 12.2652 147.837 12.4091C147.759 12.553 147.72 12.7244 147.72 12.9233H146.717C146.717 12.554 146.802 12.233 146.97 11.9602C147.139 11.6875 147.371 11.4763 147.666 11.3267C147.964 11.1771 148.304 11.1023 148.689 11.1023C149.079 11.1023 149.422 11.1752 149.717 11.321C150.013 11.4669 150.242 11.6667 150.405 11.9205C150.57 12.1742 150.652 12.464 150.652 12.7898C150.652 13.0076 150.61 13.2216 150.527 13.4318C150.444 13.642 150.297 13.875 150.087 14.1307C149.878 14.3864 149.586 14.696 149.209 15.0597L148.206 16.0795V16.1193H150.74V17H146.751ZM153.911 12.6364V13.4318H151.402V12.6364H153.911ZM152.021 11.5909H153.05V15.6875C153.05 15.8258 153.071 15.9318 153.112 16.0057C153.156 16.0777 153.213 16.1269 153.283 16.1534C153.353 16.1799 153.43 16.1932 153.516 16.1932C153.58 16.1932 153.639 16.1884 153.692 16.179C153.747 16.1695 153.788 16.161 153.817 16.1534L153.99 16.9574C153.935 16.9763 153.857 16.9972 153.754 17.0199C153.654 17.0426 153.531 17.0559 153.385 17.0597C153.127 17.0672 152.895 17.0284 152.689 16.9432C152.482 16.8561 152.319 16.7216 152.197 16.5398C152.078 16.358 152.019 16.1307 152.021 15.858V11.5909ZM155.893 14.4432V17H154.864V11.1818H155.87V13.3778H155.921C156.023 13.1316 156.182 12.9375 156.396 12.7955C156.612 12.6515 156.886 12.5795 157.219 12.5795C157.522 12.5795 157.787 12.643 158.012 12.7699C158.237 12.8968 158.412 13.0824 158.535 13.3267C158.66 13.571 158.722 13.8693 158.722 14.2216V17H157.694V14.3807C157.694 14.0871 157.618 13.8589 157.467 13.696C157.317 13.5312 157.107 13.4489 156.836 13.4489C156.654 13.4489 156.491 13.4886 156.347 13.5682C156.205 13.6458 156.094 13.7585 156.012 13.9062C155.933 14.054 155.893 14.233 155.893 14.4432Z" fill="#272727"/>
<path d="M16.554 134.145H15.4915C15.4612 133.971 15.4053 133.816 15.3239 133.682C15.2424 133.545 15.1411 133.43 15.0199 133.335C14.8987 133.241 14.7604 133.17 14.6051 133.122C14.4517 133.073 14.286 133.048 14.108 133.048C13.7917 133.048 13.5114 133.128 13.267 133.287C13.0227 133.444 12.8314 133.675 12.6932 133.98C12.5549 134.283 12.4858 134.653 12.4858 135.091C12.4858 135.536 12.5549 135.911 12.6932 136.216C12.8333 136.519 13.0246 136.748 13.267 136.903C13.5114 137.057 13.7907 137.134 14.1051 137.134C14.2794 137.134 14.4422 137.111 14.5938 137.065C14.7472 137.018 14.8845 136.949 15.0057 136.858C15.1288 136.767 15.232 136.655 15.3153 136.523C15.4006 136.39 15.4593 136.239 15.4915 136.068L16.554 136.074C16.5142 136.35 16.428 136.61 16.2955 136.852C16.1648 137.095 15.9934 137.309 15.7812 137.494C15.5691 137.678 15.321 137.822 15.0369 137.926C14.7528 138.028 14.4375 138.08 14.0909 138.08C13.5795 138.08 13.1231 137.961 12.7216 137.724C12.3201 137.488 12.0038 137.146 11.7727 136.699C11.5417 136.252 11.4261 135.716 11.4261 135.091C11.4261 134.464 11.5426 133.928 11.7756 133.483C12.0085 133.036 12.3258 132.694 12.7273 132.457C13.1288 132.221 13.5833 132.102 14.0909 132.102C14.4148 132.102 14.7159 132.148 14.9943 132.239C15.2727 132.33 15.5208 132.463 15.7386 132.639C15.9564 132.813 16.1354 133.027 16.2756 133.281C16.4176 133.533 16.5104 133.821 16.554 134.145ZM18.5021 132.182V138H17.4737V132.182H18.5021ZM20.8153 138.088C20.5388 138.088 20.2898 138.039 20.0682 137.94C19.8485 137.84 19.6742 137.692 19.5455 137.497C19.4186 137.302 19.3551 137.062 19.3551 136.776C19.3551 136.529 19.4006 136.326 19.4915 136.165C19.5824 136.004 19.7064 135.875 19.8636 135.778C20.0208 135.682 20.1979 135.609 20.3949 135.56C20.5938 135.509 20.7992 135.472 21.0114 135.449C21.267 135.422 21.4744 135.399 21.6335 135.378C21.7926 135.355 21.9081 135.321 21.9801 135.276C22.054 135.228 22.0909 135.155 22.0909 135.057V135.04C22.0909 134.826 22.0275 134.66 21.9006 134.543C21.7737 134.425 21.5909 134.366 21.3523 134.366C21.1004 134.366 20.9006 134.421 20.7528 134.531C20.607 134.641 20.5085 134.771 20.4574 134.92L19.4972 134.784C19.5729 134.519 19.6979 134.297 19.8722 134.119C20.0464 133.939 20.2595 133.805 20.5114 133.716C20.7633 133.625 21.0417 133.58 21.3466 133.58C21.5568 133.58 21.7661 133.604 21.9744 133.653C22.1828 133.703 22.3731 133.784 22.5455 133.898C22.7178 134.009 22.8561 134.162 22.9602 134.355C23.0663 134.548 23.1193 134.79 23.1193 135.08V138H22.1307V137.401H22.0966C22.0341 137.522 21.946 137.635 21.8324 137.741C21.7206 137.846 21.5795 137.93 21.4091 137.994C21.2405 138.057 21.0426 138.088 20.8153 138.088ZM21.0824 137.332C21.2888 137.332 21.4678 137.292 21.6193 137.21C21.7708 137.127 21.8873 137.017 21.9688 136.881C22.0521 136.744 22.0938 136.596 22.0938 136.435V135.92C22.0616 135.947 22.0066 135.972 21.929 135.994C21.8532 136.017 21.768 136.037 21.6733 136.054C21.5786 136.071 21.4848 136.086 21.392 136.099C21.2992 136.113 21.2188 136.124 21.1506 136.134C20.9972 136.154 20.8598 136.188 20.7386 136.236C20.6174 136.283 20.5218 136.349 20.4517 136.435C20.3816 136.518 20.3466 136.626 20.3466 136.759C20.3466 136.948 20.4157 137.091 20.554 137.188C20.6922 137.284 20.8684 137.332 21.0824 137.332ZM27.6023 134.79L26.6648 134.892C26.6383 134.797 26.5919 134.708 26.5256 134.625C26.4612 134.542 26.3741 134.474 26.2642 134.423C26.1544 134.372 26.0199 134.347 25.8608 134.347C25.6468 134.347 25.4669 134.393 25.321 134.486C25.1771 134.579 25.1061 134.699 25.108 134.847C25.1061 134.973 25.1525 135.077 25.2472 135.156C25.3438 135.236 25.5028 135.301 25.7244 135.352L26.4688 135.511C26.8816 135.6 27.1884 135.741 27.3892 135.935C27.5919 136.128 27.6941 136.381 27.696 136.693C27.6941 136.968 27.6136 137.21 27.4545 137.42C27.2973 137.629 27.0786 137.792 26.7983 137.909C26.518 138.027 26.196 138.085 25.8324 138.085C25.2983 138.085 24.8684 137.973 24.5426 137.75C24.2169 137.525 24.0227 137.211 23.9602 136.81L24.9631 136.713C25.0085 136.91 25.1051 137.059 25.2528 137.159C25.4006 137.259 25.5928 137.31 25.8295 137.31C26.0739 137.31 26.2699 137.259 26.4176 137.159C26.5672 137.059 26.642 136.935 26.642 136.787C26.642 136.662 26.5938 136.559 26.4972 136.477C26.4025 136.396 26.2547 136.333 26.054 136.29L25.3097 136.134C24.8911 136.046 24.5814 135.9 24.3807 135.693C24.1799 135.485 24.0805 135.222 24.0824 134.903C24.0805 134.634 24.1534 134.402 24.3011 134.205C24.4508 134.006 24.6581 133.852 24.9233 133.744C25.1903 133.634 25.4981 133.58 25.8466 133.58C26.358 133.58 26.7604 133.688 27.054 133.906C27.3494 134.124 27.5322 134.419 27.6023 134.79ZM31.9929 134.79L31.0554 134.892C31.0289 134.797 30.9825 134.708 30.9162 134.625C30.8518 134.542 30.7647 134.474 30.6548 134.423C30.545 134.372 30.4105 134.347 30.2514 134.347C30.0374 134.347 29.8575 134.393 29.7116 134.486C29.5677 134.579 29.4967 134.699 29.4986 134.847C29.4967 134.973 29.5431 135.077 29.6378 135.156C29.7344 135.236 29.8935 135.301 30.1151 135.352L30.8594 135.511C31.2723 135.6 31.5791 135.741 31.7798 135.935C31.9825 136.128 32.0848 136.381 32.0866 136.693C32.0848 136.968 32.0043 137.21 31.8452 137.42C31.688 137.629 31.4692 137.792 31.1889 137.909C30.9086 138.027 30.5866 138.085 30.223 138.085C29.6889 138.085 29.259 137.973 28.9332 137.75C28.6075 137.525 28.4134 137.211 28.3509 136.81L29.3537 136.713C29.3991 136.91 29.4957 137.059 29.6435 137.159C29.7912 137.259 29.9834 137.31 30.2202 137.31C30.4645 137.31 30.6605 137.259 30.8082 137.159C30.9579 137.059 31.0327 136.935 31.0327 136.787C31.0327 136.662 30.9844 136.559 30.8878 136.477C30.7931 136.396 30.6454 136.333 30.4446 136.29L29.7003 136.134C29.2817 136.046 28.9721 135.9 28.7713 135.693C28.5705 135.485 28.4711 135.222 28.473 134.903C28.4711 134.634 28.544 134.402 28.6918 134.205C28.8414 134.006 29.0488 133.852 29.3139 133.744C29.581 133.634 29.8887 133.58 30.2372 133.58C30.7486 133.58 31.151 133.688 31.4446 133.906C31.7401 134.124 31.9228 134.419 31.9929 134.79ZM37.2741 132.182V138H36.2202V133.207H36.1861L34.8253 134.077V133.111L36.2713 132.182H37.2741ZM40.902 138.111C40.4342 138.111 40.0327 137.992 39.6974 137.756C39.3641 137.517 39.1075 137.173 38.9276 136.724C38.7495 136.274 38.6605 135.731 38.6605 135.097C38.6624 134.462 38.7524 133.922 38.9304 133.477C39.1103 133.03 39.367 132.689 39.7003 132.455C40.0355 132.22 40.4361 132.102 40.902 132.102C41.3679 132.102 41.7685 132.22 42.1037 132.455C42.4389 132.689 42.6955 133.03 42.8736 133.477C43.0535 133.924 43.1435 134.464 43.1435 135.097C43.1435 135.733 43.0535 136.277 42.8736 136.727C42.6955 137.176 42.4389 137.519 42.1037 137.756C41.7704 137.992 41.3698 138.111 40.902 138.111ZM40.902 137.222C41.2656 137.222 41.5526 137.043 41.7628 136.685C41.9749 136.325 42.081 135.795 42.081 135.097C42.081 134.634 42.0327 134.246 41.9361 133.932C41.8395 133.617 41.7031 133.381 41.527 133.222C41.3509 133.061 41.1425 132.98 40.902 132.98C40.5402 132.98 40.2543 133.16 40.044 133.52C39.8338 133.878 39.7277 134.403 39.7259 135.097C39.724 135.561 39.7704 135.951 39.8651 136.267C39.9616 136.583 40.098 136.822 40.2741 136.983C40.4503 137.142 40.6596 137.222 40.902 137.222ZM46.2777 133.636V134.432H43.7692V133.636H46.2777ZM44.3885 132.591H45.4169V136.688C45.4169 136.826 45.4377 136.932 45.4794 137.006C45.523 137.078 45.5798 137.127 45.6499 137.153C45.7199 137.18 45.7976 137.193 45.8828 137.193C45.9472 137.193 46.0059 137.188 46.0589 137.179C46.1139 137.17 46.1555 137.161 46.1839 137.153L46.3572 137.957C46.3023 137.976 46.2237 137.997 46.1214 138.02C46.0211 138.043 45.898 138.056 45.7521 138.06C45.4946 138.067 45.2625 138.028 45.0561 137.943C44.8497 137.856 44.6858 137.722 44.5646 137.54C44.4453 137.358 44.3866 137.131 44.3885 136.858V132.591ZM48.2599 135.443V138H47.2315V132.182H48.2372V134.378H48.2884C48.3906 134.132 48.5488 133.937 48.7628 133.795C48.9787 133.652 49.2533 133.58 49.5866 133.58C49.8897 133.58 50.1539 133.643 50.3793 133.77C50.6046 133.897 50.7789 134.082 50.902 134.327C51.027 134.571 51.0895 134.869 51.0895 135.222V138H50.0611V135.381C50.0611 135.087 49.9853 134.859 49.8338 134.696C49.6842 134.531 49.474 134.449 49.2031 134.449C49.0213 134.449 48.8584 134.489 48.7145 134.568C48.5724 134.646 48.4607 134.759 48.3793 134.906C48.2997 135.054 48.2599 135.233 48.2599 135.443Z" fill="#272727"/>
<path d="M88.6042 81.2961C92.9243 81.2961 96.4376 77.7828 96.4376 73.4627C96.4376 69.1426 92.9243 65.6294 88.6042 65.6294C84.2842 65.6294 80.7709 69.1426 80.7709 73.4627C80.7709 77.7828 84.2842 81.2961 88.6042 81.2961ZM91.5417 83.2544H85.6667C79.1866 83.2544 73.9167 88.5243 73.9167 95.0044V96.9627H103.292V95.0044C103.292 88.5243 98.0219 83.2544 91.5417 83.2544Z" fill="#D9DDE4"/>
<path d="M102.516 79.4317C103.709 77.3991 104.224 75.0397 103.987 72.695C103.636 69.2013 101.686 66.113 98.4975 64L96.3336 67.2626C98.525 68.7157 99.8586 70.7856 100.09 73.0867C100.196 74.1561 100.063 75.2359 99.6999 76.2474C99.3368 77.2589 98.7528 78.1768 97.9903 78.9342L95.656 81.2686L98.8246 82.1988C107.112 84.6271 107.208 92.9618 107.208 93.046H111.125C111.125 89.5425 109.253 82.6962 102.516 79.4317Z" fill="#D9DDE4"/>
<path d="M73.6094 80.2031C72.4166 78.1738 71.9015 75.8181 72.1386 73.4771C72.4892 69.989 74.4398 66.9056 77.6282 64.7959L79.7923 68.0533C77.6008 69.5041 76.2671 71.5708 76.036 73.8682C75.9294 74.9359 76.0626 76.014 76.4257 77.0239C76.7889 78.0338 77.373 78.9502 78.1355 79.7065L80.47 82.0371L77.3012 82.9659C69.0129 85.3904 68.9169 93.7118 68.9169 93.7959H65C65 90.298 66.8723 83.4625 73.6094 80.2031Z" fill="#D9DDE4"/>
</svg>
