<svg width="22" height="20" viewBox="0 0 22 20" fill="none" xmlns="http://www.w3.org/2000/svg">
<path d="M11.018 2.4248C7.98388 2.4248 5.51805 4.66647 5.51805 7.42481V9.83314C5.51805 10.3415 5.27971 11.1165 4.99555 11.5498L3.94138 13.1415C3.29055 14.1248 3.73971 15.2165 4.93138 15.5831C8.88221 16.7831 13.1447 16.7831 17.0955 15.5831C18.2047 15.2498 18.6905 14.0581 18.0855 13.1415L17.0314 11.5498C16.7564 11.1165 16.518 10.3415 16.518 9.83314V7.42481C16.518 4.6748 14.043 2.4248 11.018 2.4248Z" stroke="#AC0806" stroke-width="1.5" stroke-miterlimit="10" stroke-linecap="round"/>
<path d="M12.7139 2.66621C12.4298 2.59121 12.1364 2.53288 11.8339 2.49954C10.9539 2.39954 10.1106 2.45788 9.32227 2.66621C9.5881 2.04954 10.2481 1.61621 11.0181 1.61621C11.7881 1.61621 12.4481 2.04954 12.7139 2.66621Z" stroke="#AC0806" stroke-width="1.5" stroke-miterlimit="10" stroke-linecap="round" stroke-linejoin="round"/>
<path d="M13.7686 15.8838C13.7686 17.2588 12.5311 18.3838 11.0186 18.3838C10.2669 18.3838 9.57022 18.1005 9.07522 17.6505C8.58022 17.2005 8.26855 16.5671 8.26855 15.8838" stroke="#AC0806" stroke-width="1.5" stroke-miterlimit="10"/>
</svg>
