<svg width="268" height="240" viewBox="0 0 268 240" fill="none" xmlns="http://www.w3.org/2000/svg">
<g clip-path="url(#clip0_3_80)">
<path d="M3 55C3 41.1929 14.1929 30 28 30H213C226.807 30 238 41.1929 238 55V240H3V55Z" fill="white"/>
<path d="M0 55C0 39.536 12.536 27 28 27H213C228.464 27 241 39.536 241 55H235C235 42.8497 225.15 33 213 33H28C15.8497 33 6 42.8497 6 55H0ZM238 240H3H238ZM0 240V55C0 39.536 12.536 27 28 27V33C15.8497 33 6 42.8497 6 55V240H0ZM213 27C228.464 27 241 39.536 241 55V240H235V55C235 42.8497 225.15 33 213 33V27Z" fill="#FCEEEE"/>
<g filter="url(#filter0_d_3_80)">
<rect x="17" y="186" width="207" height="44" rx="12" fill="white"/>
</g>
<rect x="23" y="192" width="32" height="32" rx="10" fill="#EEF1F8"/>
<rect x="65" y="150" width="112" height="16" rx="8" fill="#B1B8C8"/>
<rect x="65" y="203" width="112" height="10" rx="5" fill="#E7EAF1"/>
<circle cx="121" cy="100" r="35" fill="#EEF1F8"/>
<g clip-path="url(#clip1_3_80)">
<path d="M121 100C124.682 100 127.667 97.0152 127.667 93.3333C127.667 89.6514 124.682 86.6667 121 86.6667C117.318 86.6667 114.333 89.6514 114.333 93.3333C114.333 97.0152 117.318 100 121 100Z" fill="#B1B8C8"/>
<path d="M121 103.333C114.32 103.333 108.88 107.813 108.88 113.333C108.88 113.707 109.173 114 109.547 114H132.453C132.827 114 133.12 113.707 133.12 113.333C133.12 107.813 127.68 103.333 121 103.333Z" fill="#B1B8C8"/>
</g>
<g filter="url(#filter1_d_3_80)">
<circle cx="238" cy="30" r="30" fill="white"/>
</g>
<g clip-path="url(#clip2_3_80)">
<path d="M238 16.6667C230.653 16.6667 224.667 22.6533 224.667 30C224.667 37.3467 230.653 43.3333 238 43.3333C245.347 43.3333 251.333 37.3467 251.333 30C251.333 22.6533 245.347 16.6667 238 16.6667ZM244.373 26.9333L236.813 34.4933C236.627 34.68 236.373 34.7867 236.107 34.7867C235.84 34.7867 235.587 34.68 235.4 34.4933L231.627 30.72C231.24 30.3333 231.24 29.6933 231.627 29.3067C232.013 28.92 232.653 28.92 233.04 29.3067L236.107 32.3733L242.96 25.52C243.347 25.1333 243.987 25.1333 244.373 25.52C244.76 25.9067 244.76 26.5333 244.373 26.9333Z" fill="#AC0806"/>
</g>
<g filter="url(#filter2_f_3_80)">
<rect y="119" width="268" height="121" fill="url(#paint0_linear_3_80)"/>
</g>
</g>
<defs>
<filter id="filter0_d_3_80" x="-63" y="110" width="367" height="204" filterUnits="userSpaceOnUse" color-interpolation-filters="sRGB">
<feFlood flood-opacity="0" result="BackgroundImageFix"/>
<feColorMatrix in="SourceAlpha" type="matrix" values="0 0 0 0 0 0 0 0 0 0 0 0 0 0 0 0 0 0 127 0" result="hardAlpha"/>
<feOffset dy="4"/>
<feGaussianBlur stdDeviation="40"/>
<feComposite in2="hardAlpha" operator="out"/>
<feColorMatrix type="matrix" values="0 0 0 0 0.654902 0 0 0 0 0.662745 0 0 0 0 0.717647 0 0 0 0.25 0"/>
<feBlend mode="normal" in2="BackgroundImageFix" result="effect1_dropShadow_3_80"/>
<feBlend mode="normal" in="SourceGraphic" in2="effect1_dropShadow_3_80" result="shape"/>
</filter>
<filter id="filter1_d_3_80" x="148" y="-56" width="180" height="180" filterUnits="userSpaceOnUse" color-interpolation-filters="sRGB">
<feFlood flood-opacity="0" result="BackgroundImageFix"/>
<feColorMatrix in="SourceAlpha" type="matrix" values="0 0 0 0 0 0 0 0 0 0 0 0 0 0 0 0 0 0 127 0" result="hardAlpha"/>
<feOffset dy="4"/>
<feGaussianBlur stdDeviation="30"/>
<feComposite in2="hardAlpha" operator="out"/>
<feColorMatrix type="matrix" values="0 0 0 0 0.694118 0 0 0 0 0.721569 0 0 0 0 0.784314 0 0 0 0.25 0"/>
<feBlend mode="normal" in2="BackgroundImageFix" result="effect1_dropShadow_3_80"/>
<feBlend mode="normal" in="SourceGraphic" in2="effect1_dropShadow_3_80" result="shape"/>
</filter>
<filter id="filter2_f_3_80" x="-4" y="115" width="276" height="129" filterUnits="userSpaceOnUse" color-interpolation-filters="sRGB">
<feFlood flood-opacity="0" result="BackgroundImageFix"/>
<feBlend mode="normal" in="SourceGraphic" in2="BackgroundImageFix" result="shape"/>
<feGaussianBlur stdDeviation="2" result="effect1_foregroundBlur_3_80"/>
</filter>
<linearGradient id="paint0_linear_3_80" x1="121" y1="240" x2="121" y2="98.8333" gradientUnits="userSpaceOnUse">
<stop stop-color="white"/>
<stop offset="1" stop-color="white" stop-opacity="0.35"/>
</linearGradient>
<clipPath id="clip0_3_80">
<rect width="268" height="240" fill="white"/>
</clipPath>
<clipPath id="clip1_3_80">
<rect width="32" height="32" fill="white" transform="translate(105 84)"/>
</clipPath>
<clipPath id="clip2_3_80">
<rect width="32" height="32" fill="white" transform="translate(222 14)"/>
</clipPath>
</defs>
</svg>
