<svg width="16" height="12" viewBox="0 0 16 12" fill="none" xmlns="http://www.w3.org/2000/svg">
<path fill-rule="evenodd" clip-rule="evenodd" d="M3.42804 4.59646C3.24412 4.40602 3.0241 4.25412 2.78084 4.14963C2.53758 4.04513 2.27594 3.99012 2.0112 3.98782C1.74645 3.98552 1.4839 4.03597 1.23886 4.13623C0.993822 4.23648 0.771203 4.38453 0.583993 4.57174C0.396783 4.75895 0.248731 4.98157 0.148477 5.22661C0.0482237 5.47165 -0.00222528 5.7342 7.52815e-05 5.99895C0.00237585 6.26369 0.0573785 6.52533 0.161875 6.76859C0.266372 7.01185 0.418271 7.23187 0.608707 7.41579L4.59646 11.4035C4.97036 11.7773 5.47742 11.9873 6.00612 11.9873C6.53483 11.9873 7.04189 11.7773 7.41579 11.4035L15.3913 3.42805C15.5817 3.24412 15.7336 3.0241 15.8381 2.78084C15.9426 2.53758 15.9976 2.27595 15.9999 2.0112C16.0022 1.74646 15.9518 1.4839 15.8515 1.23886C15.7513 0.993823 15.6032 0.771204 15.416 0.583994C15.2288 0.396784 15.0062 0.248732 14.7611 0.148478C14.5161 0.0482246 14.2535 -0.00222528 13.9888 7.52802e-05C13.7241 0.00237585 13.4624 0.0573794 13.2192 0.161876C12.9759 0.266373 12.7559 0.418272 12.572 0.608708L6.00612 7.17454L3.42804 4.59646Z" fill="#006C67"/>
</svg>
